inDegrees=no
num_controls=7
num_derivatives=13
num_iterations=125
num_multipliers=7
num_parameters=0
num_slacks=7
num_states=26
objective=5.581628
objective_accelerations=0.284228
objective_balance=0.015560
objective_effort=0.376203
objective_height=4.839778
objective_ligament=0.065860
solver_duration=1079.367289
status=Solve_Succeeded
success=true
DataType=double
version=3
OpenSimVersion=4.4-2022-07-23-0e9fedc
endheader
time	/jointset/ground_pelvis/pelvis_tilt/value	/jointset/ground_pelvis/pelvis_tx/value	/jointset/ground_pelvis/pelvis_ty/value	/jointset/hip_r/hip_flexion_r/value	/jointset/hip_r/hip_adduction_r/value	/jointset/hip_r/hip_rotation_r/value	/jointset/back/lumbar_extension/value	/jointset/patellofemoral_r/patellar_flexion_r/value	/jointset/knee_r/knee_flexion_r/value	/jointset/knee_r/knee_adduction_r/value	/jointset/knee_r/knee_rotation_r/value	/jointset/ankle_r/ankle_angle_r/value	/jointset/subtalar_r/subtalar_angle_r/value	/jointset/ground_pelvis/pelvis_tilt/speed	/jointset/ground_pelvis/pelvis_tx/speed	/jointset/ground_pelvis/pelvis_ty/speed	/jointset/hip_r/hip_flexion_r/speed	/jointset/hip_r/hip_adduction_r/speed	/jointset/hip_r/hip_rotation_r/speed	/jointset/back/lumbar_extension/speed	/jointset/patellofemoral_r/patellar_flexion_r/speed	/jointset/knee_r/knee_flexion_r/speed	/jointset/knee_r/knee_adduction_r/speed	/jointset/knee_r/knee_rotation_r/speed	/jointset/ankle_r/ankle_angle_r/speed	/jointset/subtalar_r/subtalar_angle_r/speed	/forceset/tau_hip_flexion_r	/forceset/tau_hip_adduction_r	/forceset/tau_hip_rotation_r	/forceset/tau_knee_flexion_r	/forceset/tau_ankle_angle_r	/forceset/tau_subtalar_angle_r	/forceset/tau_lumbar_extension	lambda_cid13_p0	lambda_cid14_p0	lambda_cid14_p1	lambda_cid14_p2	lambda_cid14_p3	lambda_cid14_p4	lambda_cid14_p5	/jointset/ground_pelvis/pelvis_tilt/accel	/jointset/ground_pelvis/pelvis_tx/accel	/jointset/ground_pelvis/pelvis_ty/accel	/jointset/hip_r/hip_flexion_r/accel	/jointset/hip_r/hip_adduction_r/accel	/jointset/hip_r/hip_rotation_r/accel	/jointset/back/lumbar_extension/accel	/jointset/patellofemoral_r/patellar_flexion_r/accel	/jointset/knee_r/knee_flexion_r/accel	/jointset/knee_r/knee_adduction_r/accel	/jointset/knee_r/knee_rotation_r/accel	/jointset/ankle_r/ankle_angle_r/accel	/jointset/subtalar_r/subtalar_angle_r/accel	gamma_cid13_p0	gamma_cid14_p0	gamma_cid14_p1	gamma_cid14_p2	gamma_cid14_p3	gamma_cid14_p4	gamma_cid14_p5
0.5	-0.04270512882342663	0.07124754299353087	0.8868357434259333	0.5505576236548181	-0.2259355559104768	-0.1546765121782187	-0.304521841234142	0.5913345507008565	0.5913345507006005	0.04715476027552654	0.174530172343614	0.2518558790751735	0.05913851549049803	-0.1038940830467865	-0.04692813107034751	-0.2339462408717333	1.016766742726827	-0.003149284281094739	0.2132671132913377	-0.6052191768312198	1.427504018910225	1.427504018910269	-0.2742345642358584	3.585713220779497e-05	0.5994235749991845	0.1690761609522566	-0.03651579986717125	-0.02154559339062512	0.004200767597002943	-0.328240362943473	0.0604355668789592	-0.01352140817514465	0.1088779262425792	-36.97581411047581	-23.31173254995758	-5.619101268900893	-3.59576233839586	4.100642149308717	-675.9384679181127	60.23084457909464	0.006432373973269326	0.190704561470149	-0.2757772494474701	-0.6475622548107638	-0.07101483445371654	-0.5007232390788915	1.075206691603557	-0.8522215115129408	-0.8522215115129428	0.3359564535729085	-0.0005373557768154607	-0.3266369391954889	-0.04207677633381025	-8.748078570300417e-08	-9.884210067212508e-08	5.862497233070308e-07	-9.29466629296035e-07	-6.211859266319729e-09	-1.136675367354448e-07	8.704047977699911e-07
0.51	-0.04374386154075569	0.07078787623132624	0.8844829514725342	0.5606916193367859	-0.2259712304314515	-0.1525682374651464	-0.3105191400099397	0.6055648866422088	0.6055648866421032	0.04443105882643979	0.1745305758072925	0.2578327410011296	0.06082600987001986	-0.1038410196890582	-0.04499798707259123	-0.2365593470112234	1.00988550468274	-0.003984053860128736	0.2083824037139768	-0.5941540918778622	1.418349602801367	1.418349602801388	-0.2704838518793773	4.164191679634436e-05	0.5958646113194569	0.1683975903653006	-0.04056371061200419	-0.01996071308283716	0.004773539849168715	-0.3307555066984254	0.05597638842246804	-0.01271664070279458	0.1128076613089679	-36.31737414576038	-24.81911507634635	-5.618377755014239	-3.498952342788278	4.67330889338401	-678.2041196053613	60.14911745006126	0.006450593664887525	0.1952538859577992	-0.2461788670363313	-0.7304486001266349	-0.08958693517813809	-0.4833015655953984	1.135132364717912	-0.9790699575642978	-0.97906995756778	0.3979248067224684	0.0005024186497839429	-0.3831649526952287	-0.08453904068193033	-7.988101706231399e-08	-9.568285178193075e-08	5.00225845999432e-07	-9.056612334488053e-07	5.793013372345094e-10	-1.073274162835012e-07	8.063813312250203e-07
0.52	-0.04478172216910592	0.07034772782250519	0.8821056081435733	0.5707523938341302	-0.2260152284313261	-0.1505090011975555	-0.3164031933426997	0.6196972747630853	0.6196972747631122	0.04174552373692422	0.1745309103234121	0.2637714855162218	0.06250596017551091	-0.1037196652516514	-0.04302446039363015	-0.2388565159841186	1.002122505801895	-0.004813980061147314	0.2034594241953903	-0.5825700882238727	1.40791445481283	1.407914454812828	-0.2666012923214204	2.206762431073251e-05	0.591800092826377	0.167567346146125	-0.04461162135684758	-0.01837583277508279	0.005346312101214807	-0.3332706504533767	0.05151720996596754	-0.01191187323048865	0.1167373963753548	-35.63603854464045	-26.33443971783509	-5.615357399209293	-3.406720978852948	5.238193098031056	-680.6055022421366	60.13166065355963	0.02009058990891871	0.1993810977111473	-0.2125898161284863	-0.8239144221625999	-0.07004615885062919	-0.5083772273239386	1.178990431729855	-1.108367887448785	-1.108367887448802	0.3623258938680939	-0.005609171191698046	-0.4277479018658831	-0.07241150277772113	-7.27006476757085e-08	-9.297321637857997e-08	4.152134150427034e-07	-8.833010018301194e-07	7.58641763231374e-09	-1.020250786472581e-07	7.416472700952135e-07
0.53	-0.04581805793471624	0.06992752298206097	0.8797069043899464	0.5807312187742116	-0.2260674180519315	-0.1484991362460558	-0.3221688852113789	0.6337189970575504	0.6337189970574755	0.03909932819463764	0.1745308664458196	0.2696671288688909	0.06417695175178077	-0.1035385051761386	-0.04100986672504423	-0.2408282140737505	0.9935006644806299	-0.005619913264558319	0.1984947998658326	-0.5704889780982897	1.396222622288551	1.396222622288553	-0.2626283400768342	-2.194158006521569e-05	0.5872490099790906	0.1666091666296712	-0.04846093259960363	-0.01700644361891658	0.005939117087495496	-0.3360210107545931	0.04744143691940838	-0.01120436036428004	0.120518259219507	-34.93468820239541	-27.73207534200595	-5.638805512519708	-3.304743932434138	5.734927234909672	-683.0067997402089	60.11502401162614	0.0184677095982058	0.2034969004315775	-0.1810765532624831	-0.9026019109108943	-0.08538466042795004	-0.4934467607584584	1.234567414984121	-1.230684417602387	-1.230684417601777	0.4161975038971776	-0.002610111636846992	-0.4807285741659589	-0.1108364079190254	-6.665782889878638e-08	-8.867884759643523e-08	3.559022803817851e-07	-8.480126523987983e-07	1.102796767399305e-08	-9.482800588087142e-08	6.843930737706439e-07
0.54	-0.04685231430092178	0.0695276637581026	0.8772901603058471	0.5906195687163224	-0.2261275705564328	-0.1465395058828547	-0.3278113867563994	0.6476175823302229	0.6476175823300628	0.0364931456976329	0.1745306198128976	0.2755148733734863	0.0658376984865183	-0.1033037853716073	-0.03895533709646081	-0.2424645820785791	0.9840275062072741	-0.00640655684162512	0.193412506536802	-0.5579320234922516	1.383287050456877	1.383287050456883	-0.2585986832665098	-1.848344749411744e-05	0.5822203232115671	0.1655183778396217	-0.05231024384237204	-0.01563705446278556	0.006531922073993098	-0.3387713710558126	0.04336566387283819	-0.01049684749812605	0.1242991220636536	-34.2162076900803	-29.13765191065423	-5.660276812021941	-3.206928792090574	6.224404316550478	-685.542164953276	60.1586879088958	0.03080253571256897	0.2073682897106804	-0.1455237991678223	-0.994177812580794	-0.06618823358178488	-0.5319110272184927	1.274159327820842	-1.357115748927948	-1.357115748927991	0.3736668070157215	0.003884296197694414	-0.5232686859132866	-0.09893335749684873	-6.187357675385436e-08	-8.263115677817803e-08	3.250266224736788e-07	-7.984208534726467e-07	1.052463590340007e-08	-8.553463041730445e-08	6.354144725497413e-07
0.55	-0.04788389226831651	0.06914848837646306	0.8748587495634591	0.6004090010315465	-0.2261954885510304	-0.1446309866354413	-0.3333260574747439	0.6613807235499845	0.6613807235498959	0.03392767009059269	0.1745304612800658	0.2813099466324916	0.06748684821178051	-0.1029968203201937	-0.03687899190032261	-0.2437595957722192	0.9737217756123167	-0.007178776045520282	0.1883085477201541	-0.5449335173061058	1.369144378536005	1.369144378536011	-0.2544579482677876	-2.315670358683229e-05	0.5767122515628341	0.1642786773119161	-0.05624111861332485	-0.01414864641799647	0.007159737624263809	-0.3411498308129031	0.03881241254743472	-0.00989748729288006	0.1281050595602322	-33.48342171822519	-30.70188391811347	-5.765128779916119	-3.085961873007161	6.89185280618457	-688.0026672780956	60.03607935568029	0.03288413002887557	0.2078817843123586	-0.1128106535588835	-1.069356914008799	-0.0831098157955065	-0.4971676347531398	1.322986694549966	-1.472353305013574	-1.472353305013606	0.4400463049210056	-0.004264579427086882	-0.5768920030941963	-0.1414647439242637	-5.134306852818254e-08	-4.656149538105537e-08	3.898496631304406e-07	-5.053657803662098e-07	-1.921480798220904e-08	-3.77542881986957e-08	5.126387824470721e-07
